<svg width="129" height="53" viewBox="0 0 129 53" fill="none" xmlns="http://www.w3.org/2000/svg">
<path d="M23.8191 7.20407C22.3236 8.96029 19.9303 10.346 17.5373 10.1478C17.2382 7.77323 18.4096 5.24971 19.7808 3.69113C21.2762 1.88544 23.8938 0.598942 26.0127 0.5C26.2619 2.9738 25.2896 5.39813 23.8191 7.20407ZM25.9877 10.6181C22.5227 10.4202 19.5564 12.5722 17.9112 12.5722C16.2412 12.5722 13.7233 10.717 10.9813 10.7665C7.41687 10.8159 4.10139 12.8195 2.28163 16.0109C-1.45757 22.3934 1.30957 31.8436 4.9239 37.0386C6.6938 39.6113 8.81265 42.4314 11.6045 42.3325C14.247 42.2335 15.2938 40.6257 18.4847 40.6257C21.7002 40.6257 22.6227 42.3325 25.4145 42.283C28.306 42.2335 30.1257 39.7105 31.8956 37.1375C33.9145 34.2185 34.7373 31.3734 34.7872 31.225C34.7373 31.1755 29.2035 29.073 29.1537 22.7397C29.1038 17.4458 33.516 14.9225 33.7154 14.7741C31.2224 11.1128 27.3339 10.717 25.9877 10.6181ZM46.0048 3.44377V42.0112H52.037V28.8256H60.3878C68.0155 28.8256 73.3751 23.6307 73.3751 16.1101C73.3751 8.58975 68.1152 3.44402 60.5872 3.44402H46.0045L46.0048 3.44377ZM52.037 8.49056H58.9918C64.2267 8.49056 67.2179 11.2612 67.2179 16.1346C67.2179 21.008 64.2267 23.8036 58.9668 23.8036H52.037V8.49056ZM84.393 42.3077C88.1821 42.3077 91.6967 40.4031 93.2921 37.3849H93.4167V42.0109H99.0006V22.8139C99.0006 17.2479 94.5137 13.6608 87.6085 13.6608C81.2021 13.6608 76.466 17.2974 76.2915 22.2945H81.7258C82.1745 19.9196 84.3928 18.361 87.4341 18.361C91.1234 18.361 93.1924 20.068 93.1924 23.2099V25.3372L85.6642 25.7824C78.6596 26.2029 74.8708 29.048 74.8708 33.9959C74.8708 38.9929 78.7842 42.3077 84.393 42.3077ZM86.0131 37.7312C82.7978 37.7312 80.7535 36.1976 80.7535 33.8472C80.7535 31.4231 82.7228 30.0129 86.4869 29.7903L93.1924 29.3698V31.5465C93.1924 35.1584 90.1015 37.7312 86.0134 37.7312H86.0131ZM106.454 52.5C112.337 52.5 115.104 50.2738 117.522 43.52L128.116 14.0318H121.984L114.879 36.8157H114.755L107.65 14.0318H101.344L111.564 42.1098L111.016 43.8168C110.093 46.7111 108.598 47.8245 105.93 47.8245C105.457 47.8245 104.535 47.775 104.161 47.7256V52.3516C104.509 52.4505 106.005 52.5 106.454 52.5Z" fill="#CCCCCC"/>
</svg>
