<svg width="42" height="42" viewBox="0 0 42 42" fill="none" xmlns="http://www.w3.org/2000/svg">
<path d="M12.5834 41.8333C11.4375 41.8333 10.457 41.4257 9.64171 40.6104C8.82504 39.7938 8.41671 38.8125 8.41671 37.6667C8.41671 36.5208 8.82504 35.5396 9.64171 34.7229C10.457 33.9076 11.4375 33.5 12.5834 33.5C13.7292 33.5 14.7098 33.9076 15.525 34.7229C16.3417 35.5396 16.75 36.5208 16.75 37.6667C16.75 38.8125 16.3417 39.7938 15.525 40.6104C14.7098 41.4257 13.7292 41.8333 12.5834 41.8333ZM33.4167 41.8333C32.2709 41.8333 31.2903 41.4257 30.475 40.6104C29.6584 39.7938 29.25 38.8125 29.25 37.6667C29.25 36.5208 29.6584 35.5396 30.475 34.7229C31.2903 33.9076 32.2709 33.5 33.4167 33.5C34.5625 33.5 35.5438 33.9076 36.3605 34.7229C37.1757 35.5396 37.5834 36.5208 37.5834 37.6667C37.5834 38.8125 37.1757 39.7938 36.3605 40.6104C35.5438 41.4257 34.5625 41.8333 33.4167 41.8333ZM10.8125 8.5L15.8125 18.9167H30.3959L36.125 8.5H10.8125ZM12.5834 31.4167C11.0209 31.4167 9.84032 30.7306 9.04171 29.3583C8.2431 27.9875 8.20837 26.625 8.93754 25.2708L11.75 20.1667L4.25004 4.33334H2.11462C1.52435 4.33334 1.03824 4.13334 0.656291 3.73334C0.274346 3.33473 0.083374 2.84028 0.083374 2.25001C0.083374 1.65973 0.283374 1.16459 0.683374 0.764588C1.08199 0.365977 1.57643 0.166672 2.16671 0.166672H5.55212C5.93407 0.166672 6.29865 0.270839 6.64587 0.479172C6.9931 0.687505 7.25351 0.982644 7.42712 1.36459L8.83337 4.33334H39.5625C40.5 4.33334 41.1424 4.68056 41.4896 5.375C41.8368 6.06945 41.8195 6.79862 41.4375 7.56251L34.0417 20.8958C33.6598 21.5903 33.1563 22.1285 32.5313 22.5104C31.9063 22.8924 31.1945 23.0833 30.3959 23.0833H14.875L12.5834 27.25H35.5521C36.1424 27.25 36.6285 27.4493 37.0105 27.8479C37.3924 28.2479 37.5834 28.7431 37.5834 29.3333C37.5834 29.9236 37.3834 30.4181 36.9834 30.8167C36.5848 31.2167 36.0903 31.4167 35.5 31.4167H12.5834Z" fill="black"/>
</svg>
