<svg width="42" height="39" viewBox="0 0 42 39" fill="none" xmlns="http://www.w3.org/2000/svg">
<path d="M21.2084 32.6458L21 32.8542L20.7709 32.6458C10.875 23.6667 4.33335 17.7292 4.33335 11.7083C4.33335 7.54167 7.45835 4.41667 11.625 4.41667C14.8334 4.41667 17.9584 6.5 19.0625 9.33333H22.9375C24.0417 6.5 27.1667 4.41667 30.375 4.41667C34.5417 4.41667 37.6667 7.54167 37.6667 11.7083C37.6667 17.7292 31.125 23.6667 21.2084 32.6458ZM30.375 0.25C26.75 0.25 23.2709 1.9375 21 4.58333C18.7292 1.9375 15.25 0.25 11.625 0.25C5.20835 0.25 0.166687 5.27083 0.166687 11.7083C0.166687 19.5625 7.25002 26 17.9792 35.7292L21 38.4792L24.0209 35.7292C34.75 26 41.8334 19.5625 41.8334 11.7083C41.8334 5.27083 36.7917 0.25 30.375 0.25Z" fill="black"/>
</svg>
