<svg width="22" height="22" viewBox="0 0 22 22" fill="none" xmlns="http://www.w3.org/2000/svg">
<path d="M11.1 17.9482L11 18.0572L10.89 17.9482C6.14 13.2507 3 10.1444 3 6.99455C3 4.81471 4.5 3.17984 6.5 3.17984C8.04 3.17984 10.47 4.604 11 6.08629C11.53 4.604 13.96 3.17984 15.5 3.17984C17.5 3.17984 19 4.81471 19 6.99455C19 10.1444 15.86 13.2507 11.1 17.9482ZM15.5 1C13.76 1 12.09 1.88283 11 3.26703C9.91 1.88283 8.24 1 6.5 1C3.42 1 1 3.6267 1 6.99455C1 11.1035 4.4 14.4714 9.55 19.5613L11 21L12.45 19.5613C17.6 14.4714 21 11.1035 21 6.99455C21 3.6267 18.58 1 15.5 1Z" fill="black"/>
</svg>
