<svg width="22" height="20" viewBox="0 0 22 20" fill="none" xmlns="http://www.w3.org/2000/svg">
<path d="M9.75013 20C9.39596 20 9.09929 19.88 8.86013 19.64C8.62013 19.4008 8.50013 19.1042 8.50013 18.75V11.25L1.25013 2C0.937629 1.58333 0.890962 1.14583 1.11013 0.6875C1.32846 0.229167 1.70846 0 2.25013 0H19.7501C20.2918 0 20.6722 0.229167 20.8914 0.6875C21.1097 1.14583 21.0626 1.58333 20.7501 2L13.5001 11.25V18.75C13.5001 19.1042 13.3805 19.4008 13.1414 19.64C12.9014 19.88 12.6043 20 12.2501 20H9.75013ZM11.0001 10.375L17.1876 2.5H4.81263L11.0001 10.375Z" fill="black"/>
</svg>
