<svg width="60" height="48" viewBox="0 0 60 48" fill="none" xmlns="http://www.w3.org/2000/svg">
<path d="M53.3142 41.2972H47.4809V15.7764L29.9809 26.7139L12.4809 15.7764V41.2972H6.64754V6.2972H10.1475L29.9809 18.693L49.8142 6.2972H53.3142M53.3142 0.463867H6.64754C3.41004 0.463867 0.814209 3.0597 0.814209 6.2972V41.2972C0.814209 42.8443 1.42879 44.328 2.52275 45.422C3.61671 46.516 5.10045 47.1305 6.64754 47.1305H53.3142C54.8613 47.1305 56.345 46.516 57.439 45.422C58.533 44.328 59.1475 42.8443 59.1475 41.2972V6.2972C59.1475 4.7501 58.533 3.26637 57.439 2.17241C56.345 1.07845 54.8613 0.463867 53.3142 0.463867Z" fill="white"/>
</svg>
