<svg width="420" height="77" viewBox="0 0 420 77" fill="none" xmlns="http://www.w3.org/2000/svg">
<path d="M158.33 50.15V28H162.72V32.72L161.91 33.23C162.154 32.4733 162.519 31.7608 162.99 31.12C163.499 30.4315 164.113 29.8273 164.81 29.33C165.522 28.8089 166.303 28.3882 167.13 28.08C167.945 27.7743 168.809 27.6185 169.68 27.62C170.822 27.5952 171.956 27.8099 173.01 28.25C173.955 28.6611 174.773 29.317 175.38 30.15C176.045 31.0978 176.505 32.1741 176.73 33.31L176.05 33.15L176.35 32.43C176.68 31.7525 177.116 31.1315 177.64 30.59C178.199 30.0035 178.827 29.4865 179.51 29.05C180.208 28.6042 180.961 28.2512 181.75 28C182.498 27.7499 183.281 27.6216 184.07 27.62C185.51 27.5585 186.938 27.9052 188.19 28.62C189.318 29.3522 190.175 30.4341 190.63 31.7C191.227 33.3495 191.508 35.0965 191.46 36.85V50.14H187.07V37.14C187.107 36.0848 186.94 35.0325 186.58 34.04C186.307 33.2999 185.797 32.6706 185.13 32.25C184.371 31.8263 183.509 31.622 182.64 31.66C181.881 31.6518 181.128 31.7875 180.42 32.06C179.753 32.3078 179.144 32.6889 178.63 33.18C178.127 33.6465 177.725 34.2116 177.45 34.84C177.158 35.4976 177.011 36.2105 177.02 36.93V50.18H172.63V37.03C172.66 36.0298 172.49 35.0336 172.13 34.1C171.843 33.3378 171.326 32.684 170.65 32.23C169.942 31.793 169.121 31.5739 168.29 31.6C167.538 31.5916 166.791 31.7274 166.09 32C165.438 32.252 164.838 32.6214 164.32 33.09C163.818 33.5536 163.416 34.1152 163.14 34.74C162.857 35.3861 162.714 36.0847 162.72 36.79V50.12L158.33 50.15Z" fill="#332310"/>
<path d="M205.05 50.58C203.6 50.6129 202.171 50.2313 200.93 49.48C199.75 48.7373 198.812 47.667 198.23 46.4C197.564 44.9141 197.239 43.2978 197.28 41.67V28H201.63V40.49C201.602 41.6399 201.81 42.7833 202.24 43.85C202.604 44.7316 203.219 45.4864 204.01 46.02C204.852 46.542 205.829 46.8062 206.82 46.78C207.585 46.7851 208.344 46.6495 209.06 46.38C209.71 46.1233 210.304 45.7429 210.81 45.26C211.309 44.7673 211.704 44.1789 211.97 43.53C212.254 42.8316 212.397 42.0838 212.39 41.33V28H216.74V50.15H212.39V45.51L213.15 45.01C212.8 46.0668 212.215 47.0308 211.44 47.83C210.633 48.6804 209.664 49.3605 208.59 49.83C207.476 50.3282 206.27 50.5839 205.05 50.58Z" fill="#332310"/>
<path d="M222.81 59.44V28H227.2V33.06L226.53 32.68C226.755 31.7463 227.253 30.9005 227.96 30.25C228.798 29.4469 229.778 28.8061 230.85 28.36C231.962 27.8694 233.165 27.6174 234.38 27.62C236.258 27.5862 238.106 28.0967 239.7 29.09C241.26 30.0962 242.526 31.4968 243.37 33.15C244.297 34.9762 244.76 37.0024 244.72 39.05C244.757 41.0918 244.301 43.1124 243.39 44.94C242.56 46.6075 241.3 48.023 239.74 49.04C238.19 50.0277 236.388 50.5452 234.55 50.53C233.26 50.5298 231.983 50.2643 230.8 49.75C229.661 49.2756 228.617 48.5979 227.72 47.75C226.96 47.0807 226.417 46.1997 226.16 45.22L227.25 44.63V59.44H222.81ZM233.81 46.52C235.036 46.5322 236.239 46.1845 237.27 45.52C238.291 44.865 239.119 43.9505 239.67 42.87C240.276 41.6785 240.582 40.3567 240.56 39.02C240.585 37.698 240.286 36.3901 239.69 35.21C239.152 34.1295 238.329 33.2166 237.31 32.57C236.266 31.9012 235.049 31.5535 233.81 31.57C232.568 31.5573 231.349 31.9047 230.3 32.57C229.278 33.2149 228.449 34.1234 227.9 35.2C227.294 36.3881 226.989 37.7065 227.01 39.04C226.988 40.3767 227.294 41.6985 227.9 42.89C228.451 43.9704 229.279 44.885 230.3 45.54C231.344 46.1983 232.556 46.5388 233.79 46.52H233.81Z" fill="#332310"/>
<path d="M279.42 17.63C278.901 17.3968 278.37 17.1899 277.83 17.01C277.72 17.01 277.6 16.93 277.49 16.91C277.38 16.89 277.3 16.85 277.21 16.82C276.65 16.6605 276.083 16.5303 275.51 16.43L274.9 16.34C274.329 16.2691 273.755 16.229 273.18 16.22H273.11C272.63 16.22 272.16 16.22 271.7 16.22C271.58 16.2097 271.46 16.2097 271.34 16.22H270.94C270.75 16.22 270.55 16.22 270.36 16.31C270.162 16.3361 269.965 16.3728 269.77 16.42L269.18 16.55L268.86 16.6399L268.36 16.8C267.014 17.2318 265.779 17.9518 264.74 18.91L264.43 19.22C263.564 20.1174 262.884 21.1779 262.43 22.34C261.873 23.8404 261.591 25.4293 261.6 27.03L261.51 36.61V36.78C261.489 38.843 261.995 40.8772 262.98 42.69C263.001 42.7398 263.028 42.7868 263.06 42.8299C262.103 41.0404 261.612 39.0392 261.63 37.01V36.8299C261.595 34.8241 262.07 32.8422 263.01 31.07C263.729 29.7095 264.731 28.5193 265.95 27.5799V26.5799C265.917 25.3098 266.203 24.0517 266.78 22.92C267.321 21.9454 268.158 21.168 269.17 20.6999C269.861 20.3952 270.591 20.1899 271.34 20.09C271.495 20.0595 271.652 20.0395 271.81 20.03C271.97 20.03 272.14 20.03 272.31 20.03H272.96H273.59C273.81 20.03 274.03 20.03 274.24 20.09H274.61H274.84L275.49 20.21C275.91 20.31 276.3 20.42 276.69 20.54C277.08 20.66 277.5 20.83 277.89 21C278.599 21.3001 279.27 21.6827 279.89 22.1399L281.34 19.1399V19.07L281.49 18.77C280.85 18.3058 280.154 17.9229 279.42 17.63ZM276.67 30.44C275.553 29.7935 274.28 29.4682 272.99 29.5H272.79C274.064 29.4861 275.315 29.8328 276.4 30.5C277.444 31.1664 278.293 32.0981 278.86 33.1999C279.464 34.4019 279.76 35.7353 279.72 37.0799C279.729 38.4212 279.406 39.744 278.78 40.93C278.346 41.7505 277.751 42.4749 277.03 43.06C277.03 43.06 277.03 43.06 276.97 43.06C276.74 43.23 276.51 43.4 276.26 43.55C275.293 44.1594 274.182 44.5043 273.04 44.55H273.14C274.423 44.5615 275.683 44.2152 276.78 43.55C276.893 43.4859 277 43.4123 277.1 43.3299H277.16C278.041 42.6932 278.755 41.8527 279.24 40.88C279.847 39.6679 280.146 38.325 280.11 36.97C280.119 35.6236 279.8 34.2953 279.18 33.1C278.61 31.9952 277.74 31.0734 276.67 30.44ZM279.01 46.03C278.456 46.5077 277.857 46.9298 277.22 47.29C276.528 47.6782 275.793 47.9836 275.03 48.1999C274.332 48.3923 273.614 48.503 272.89 48.53H273.2C275.152 48.5863 277.081 48.0869 278.76 47.09C279.159 46.8509 279.544 46.587 279.91 46.3L280.03 46.1999V44.97C279.722 45.3526 279.381 45.7073 279.01 46.03ZM279.72 27.6C279.47 27.41 279.2 27.23 278.92 27.05C277.675 26.2841 276.28 25.7931 274.83 25.61C274.323 25.5424 273.812 25.5057 273.3 25.5H272.84C273.559 25.511 274.272 25.6221 274.96 25.8299C275.326 25.9282 275.684 26.0553 276.03 26.21C277.119 26.6576 278.111 27.3131 278.95 28.1399C279.308 28.5017 279.617 28.9085 279.87 29.35V27.82V27.69L279.72 27.6Z" fill="#332310"/>
<path d="M292.87 59.86L297.35 49.52V52.98L286.29 27.98H291.36L298.28 44.27C298.476 44.688 298.643 45.1191 298.78 45.56C298.98 46.13 299.15 46.7 299.29 47.26L298.19 47.52C298.42 46.93 298.64 46.34 298.85 45.74C299.06 45.14 299.26 44.56 299.46 43.97L305.24 27.97H310.39L301.28 50.12L297.52 59.83L292.87 59.86Z" fill="#332310"/>
<path d="M313.6 50.15V28H317.98V32.72L317.18 33.23C317.424 32.4733 317.789 31.7608 318.26 31.12C318.768 30.4339 319.378 29.8301 320.07 29.33C320.784 28.8108 321.564 28.3904 322.39 28.08C323.209 27.7742 324.076 27.6184 324.95 27.62C326.092 27.5961 327.226 27.8107 328.28 28.25C329.225 28.6611 330.043 29.317 330.65 30.15C331.311 31.0999 331.771 32.1754 332 33.31L331.32 33.15L331.62 32.43C331.947 31.7528 332.379 31.1318 332.9 30.59C333.465 30.0057 334.096 29.4889 334.78 29.05C335.477 28.6022 336.23 28.2491 337.02 28C337.768 27.7499 338.551 27.6215 339.34 27.62C340.777 27.5571 342.202 27.9039 343.45 28.62C344.581 29.3517 345.441 30.4334 345.9 31.7C346.497 33.3495 346.778 35.0965 346.73 36.85V50.14H342.34V37.14C342.371 36.0851 342.205 35.0337 341.85 34.04C341.577 33.2999 341.067 32.6706 340.4 32.25C339.638 31.825 338.772 31.6207 337.9 31.66C337.145 31.653 336.395 31.7888 335.69 32.06C335.023 32.3078 334.414 32.6888 333.9 33.18C333.393 33.6456 332.988 34.2107 332.71 34.84C332.425 35.4995 332.282 36.2116 332.29 36.93V50.18H327.9V37.03C327.925 36.0301 327.755 35.0349 327.4 34.1C327.108 33.3488 326.591 32.7062 325.92 32.26C325.212 31.8241 324.391 31.6051 323.56 31.63C322.808 31.6216 322.061 31.7574 321.36 32.03C320.708 32.2819 320.108 32.6514 319.59 33.12C319.088 33.5836 318.686 34.1451 318.41 34.77C318.124 35.4153 317.977 36.114 317.98 36.82V50.15H313.6Z" fill="#332310"/>
<path d="M361.08 50.58C359.298 50.59 357.555 50.0602 356.08 49.06C354.548 48.0082 353.309 46.5834 352.48 44.92C351.554 43.0899 351.09 41.0608 351.13 39.01C351.089 36.9504 351.559 34.9127 352.5 33.08C353.353 31.4177 354.634 30.0128 356.21 29.01C357.785 28.0218 359.611 27.508 361.47 27.53C362.545 27.5179 363.614 27.6904 364.63 28.04C365.544 28.3562 366.394 28.8337 367.14 29.45C367.843 30.0421 368.442 30.7487 368.91 31.54C369.375 32.3128 369.671 33.1749 369.78 34.07L368.78 33.74V28H373.17V50.15H368.78V44.88L369.78 44.58C369.602 45.3805 369.262 46.1361 368.78 46.8C368.228 47.5501 367.552 48.1995 366.78 48.72C365.96 49.2916 365.065 49.7461 364.12 50.07C363.143 50.4103 362.115 50.5827 361.08 50.58ZM362.21 46.58C363.452 46.5915 364.671 46.2443 365.72 45.58C366.743 44.9205 367.566 43.9937 368.1 42.9C368.698 41.6847 368.996 40.3441 368.97 38.99C368.993 37.6587 368.694 36.3415 368.1 35.15C367.56 34.0656 366.738 33.1467 365.72 32.49C364.671 31.8257 363.452 31.4785 362.21 31.49C360.99 31.4811 359.795 31.8287 358.77 32.49C357.765 33.1563 356.952 34.0731 356.41 35.15C355.819 36.3423 355.524 37.6595 355.55 38.99C355.521 40.3433 355.816 41.6838 356.41 42.9C356.946 43.9863 357.76 44.911 358.77 45.58C359.796 46.2378 360.991 46.5819 362.21 46.57V46.58Z" fill="#332310"/>
<path d="M394.55 33.91C394.556 34.6138 394.458 35.3147 394.26 35.99C394.059 36.6282 393.744 37.2245 393.33 37.75C392.653 38.5058 391.834 39.1209 390.92 39.56C389.64 40.1773 388.3 40.6599 386.92 41L386.73 41.05C386.001 41.236 385.283 41.4631 384.58 41.73C384.117 41.9089 383.672 42.1298 383.25 42.39C382.991 42.6046 382.784 42.8756 382.645 43.1824C382.506 43.4891 382.44 43.8235 382.45 44.16C382.444 44.5606 382.529 44.9574 382.7 45.32C382.874 45.6759 383.127 45.9872 383.44 46.23C383.783 46.4865 384.169 46.6795 384.58 46.8C385.043 46.9266 385.52 46.9905 386 46.99C386.25 46.99 393.24 46.99 393.48 46.99V50.6H386.37C384.974 50.6217 383.59 50.3313 382.32 49.75C381.17 49.2333 380.175 48.427 379.43 47.41C378.716 46.4215 378.341 45.229 378.36 44.01C378.35 43.2112 378.461 42.4153 378.69 41.65C378.921 40.9383 379.331 40.2979 379.88 39.79C380.504 39.164 381.236 38.6559 382.04 38.29C383.164 37.7833 384.332 37.3816 385.53 37.09C385.96 36.99 386.37 36.88 386.73 36.78C387.09 36.68 387.56 36.51 387.89 36.37C388.38 36.1834 388.85 35.9454 389.29 35.66C389.565 35.4349 389.788 35.1514 389.94 34.83C390.094 34.5168 390.189 34.1778 390.22 33.83C390.224 33.4348 390.135 33.0444 389.96 32.69C389.793 32.349 389.537 32.059 389.22 31.85C388.856 31.612 388.448 31.4488 388.02 31.37C387.63 31.28 380.41 31.46 379.94 31.44V27.84C381.01 27.84 388.79 27.74 389.73 28.05C390.646 28.3328 391.504 28.7801 392.26 29.37C392.95 29.9181 393.525 30.5979 393.95 31.37C394.355 32.1549 394.561 33.027 394.55 33.91Z" fill="#332310"/>
<path d="M407.67 50.58C406.22 50.6129 404.791 50.2313 403.55 49.48C402.37 48.7373 401.432 47.667 400.85 46.4C400.184 44.9141 399.859 43.2978 399.9 41.67V28H404.25V40.49C404.222 41.6399 404.43 42.7833 404.86 43.85C405.224 44.7316 405.839 45.4864 406.63 46.02C407.472 46.542 408.449 46.8062 409.44 46.78C410.205 46.786 410.964 46.6504 411.68 46.38C412.332 46.1258 412.926 45.7452 413.43 45.26C413.915 44.7637 414.296 44.1755 414.55 43.53C414.834 42.8316 414.977 42.0838 414.97 41.33V28H419.32V50.15H414.97V45.51L415.73 45.01C415.38 46.0668 414.795 47.0308 414.02 47.83C413.213 48.6804 412.244 49.3605 411.17 49.83C410.069 50.3235 408.876 50.5791 407.67 50.58Z" fill="#332310"/>
<path d="M282.79 31.23C282.06 29.8772 281.059 28.6893 279.85 27.74V27.87V29.4C279.597 28.9585 279.288 28.5518 278.93 28.19C278.091 27.3632 277.099 26.7077 276.01 26.26C275.664 26.1053 275.306 25.9783 274.94 25.88C274.252 25.6721 273.539 25.5611 272.82 25.55C271.785 25.607 270.768 25.8509 269.82 26.27C268.734 26.7139 267.749 27.37 266.92 28.2C266.557 28.5537 266.247 28.9578 266 29.4V27.74C264.781 28.6793 263.779 29.8695 263.06 31.23C262.12 33.0022 261.645 34.9841 261.68 36.99V37.17C261.661 39.1992 262.153 41.2005 263.11 42.99V43.08C263.16 43.16 263.21 43.25 263.27 43.33C263.941 44.4929 264.835 45.5123 265.9 46.33C266.258 46.6238 266.639 46.8881 267.04 47.12C268.213 47.8167 269.517 48.2659 270.87 48.44C271.433 48.5228 272.001 48.5595 272.57 48.55H272.88C273.604 48.5231 274.322 48.4123 275.02 48.22C275.783 48.0036 276.518 47.6982 277.21 47.31C277.847 46.9498 278.446 46.5277 279 46.05C279.361 45.7455 279.696 45.411 280 45.05V46.23C281.08 45.3583 281.98 44.2851 282.65 43.07C283.642 41.2562 284.148 39.217 284.12 37.15C284.189 35.0955 283.731 33.0576 282.79 31.23ZM279.24 40.89C278.755 41.8626 278.041 42.7033 277.16 43.34H277.1C277 43.4223 276.893 43.496 276.78 43.56C275.683 44.2252 274.423 44.5715 273.14 44.56H272.65C271.364 44.5739 270.099 44.2275 269 43.56C267.955 42.8936 267.107 41.9618 266.54 40.86C265.933 39.6447 265.638 38.2977 265.68 36.94C265.659 35.5935 265.976 34.2632 266.6 33.07C267.031 32.2529 267.627 31.5344 268.35 30.96C268.589 30.772 268.84 30.5984 269.1 30.44C270.127 29.843 271.292 29.5257 272.48 29.52H272.98C274.27 29.4882 275.543 29.8135 276.66 30.46C277.726 31.0852 278.595 31.9963 279.17 33.09C279.79 34.2853 280.109 35.6136 280.1 36.96C280.135 38.3074 279.84 39.643 279.24 40.85V40.89Z" fill="#332310"/>
<path d="M86.27 39.96L90.75 41.71L91.24 41.22L108.24 46.71L114.76 37.32L124.01 39.9L125.01 33.47L148.06 34.74L145.38 31.11L126.84 21.17L101.26 23.9L102.64 19.18L112.23 18.69L111.11 12.28L133.37 6.14998L129.67 3.56001L108.94 0.0299835H108.87L46.3 28.54H46.23L46.13 28.79L41.13 41.27L41.43 44.01L17.95 17.92L12.83 17.47L18.42 3.63997L9.54999 16.23L13.84 1.14998L13.65 1.32002L1.39001 25.1L0.039978 27.66L5.20996 33.41L12.75 25.62L41.68 74.5L41.81 74.72L43.97 72.72L45.09 74.48L45.21 74.68L45.55 74.44L60.75 63.83L63.85 64.5L76.67 74.41L77 74.66L77.15 74.46L81.81 67.78L89.94 74.35L90.09 74.47L103.41 75.99H103.54L103.76 75.76L106.15 73.13L108.83 76.13H109.32L115.67 76H115.84L116.06 75.85L124.15 70.28L113.05 72.09L110.21 68.54L110.15 68.48L102.27 67.35L98.13 69.5L88.28 58.5L88.12 58.32H87.76L80.59 57.82L83.28 44.91L86.27 39.96ZM90.65 41.23L62.04 30.01L77.55 30.86L94.69 37.12L90.65 41.23ZM58.35 29.01L73.99 35.14L63.55 52.73L58.35 29.01ZM63.17 52.86L47.73 43.45L57.96 29.16L63.17 52.86ZM78.97 30.94L110.35 32.67L101.29 39.09L78.97 30.94ZM108.06 46.23L91.56 40.9L95.11 37.29L101.24 39.53H101.35L107.35 35.24L114.28 37.17L108.06 46.23ZM123.65 39.39L107.83 34.97L111.02 32.71L124.56 33.46L123.65 39.39ZM126.65 21.58L145.05 31.44L147.16 34.29L77.63 30.46L60.83 29.54L58.94 28.8L126.65 21.58ZM100.72 23.93L58.08 28.47H57.93L57.72 28.75L55.83 31.39L49.06 29.29L65.24 24.84L91.42 24H91.52L94.86 19.54L102.1 19.17L100.72 23.93ZM66.95 24.39L96.89 16.15L91.31 23.61L66.95 24.39ZM111.65 18.23L95.19 19.07L97.55 15.91L110.62 12.31L111.65 18.23ZM108.84 0.38002L129.42 3.88997L132.32 5.88997L65.2 24.37L48.39 29L46.98 28.56L108.84 0.38002ZM46.43 28.88L55.54 31.71L47.38 43.23L47.46 43.29L41.46 41.29L46.43 28.88ZM47.54 43.31L47.44 43.47L47.5 43.29L47.54 43.31ZM41.54 41.66L47.26 43.61L46.81 50L41.81 44.44L41.54 41.66ZM16.55 6.82997L12.27 17.43L9.26996 17.17L16.55 6.82997ZM0.549988 27.58L1.76996 25.28L12.55 4.32997L8.77997 17.23L2.53998 26.13L2.47998 26.22L4.62 32.15L0.549988 27.58ZM9.20001 17.58L9.04999 17.68L9.12 17.57L9.20001 17.58ZM5.29999 32.73L2.98999 26.32L8.98999 17.76L13.28 24.5L5.29999 32.73ZM41.91 74.07L13.06 25.31L13.51 24.85L43.75 72.33L41.91 74.07ZM45.15 73.75L9.37 17.6L17.71 18.33L46.78 50.62L45.15 73.75ZM60.54 63.44L45.54 73.91L47.66 43.91L63.28 53.43L60.54 63.44ZM60.97 63.44L63.37 54.67L63.73 64.04L60.97 63.44ZM122.45 70.96L115.85 75.5L113.4 72.43L122.45 70.96ZM110.45 69.37L112.85 72.37L112.95 72.5L115.4 75.56L109.47 75.68L110.45 69.37ZM110.09 68.93L109.09 75.66L106.54 72.86L110.13 68.92L110.09 68.93ZM102.43 67.75L109.65 68.75L103.57 75.45L98.49 69.76L102.43 67.75ZM103.08 75.56L90.36 74.11L88.36 59.11L103.08 75.56ZM87.96 59.02L89.89 73.75L82.08 67.44L87.96 59.02ZM87.72 58.64L77.39 73.42L80.58 58.14L87.72 58.64ZM76.84 73.99L64.17 64.19L63.76 53.46L82.89 45.09L76.84 73.99ZM64.05 52.88L74.45 35.33L85.95 39.84L83.03 44.58L64.05 52.88Z" fill="#DB910E"/>
<path d="M111.65 18.27L95.19 19.11L97.55 15.96L110.62 12.36L111.65 18.27Z" fill="#E8A920"/>
<path d="M96.9 16.14L91.32 23.6L66.96 24.38L96.9 16.14Z" fill="url(#paint0_linear_1_4)"/>
<path d="M124.56 33.45L123.65 39.39L107.83 34.97L111.02 32.71L124.56 33.45Z" fill="#E8A920"/>
<path d="M114.32 37.21L108.06 46.22L91.56 40.89L95.11 37.28L101.25 39.52L101.35 39.56L107.39 35.28L114.32 37.21Z" fill="#DB910E"/>
<path d="M110.36 32.67L101.29 39.1L78.97 30.94L110.36 32.67Z" fill="url(#paint1_linear_1_4)"/>
<path d="M94.69 37.13L90.65 41.23L62.04 30.02L77.55 30.87L94.69 37.13Z" fill="#E8A920"/>
<path d="M147.17 34.28L77.64 30.46L77.61 30.45V30.46L60.81 29.53L58.93 28.79L126.67 21.57L145.06 31.44L147.17 34.28Z" fill="url(#paint2_linear_1_4)"/>
<path d="M102.11 19.17L100.73 23.92L58.09 28.46L57.94 28.48L57.73 28.77L55.84 31.41L49.07 29.3L65.25 24.85L91.43 24.01H91.53L94.87 19.54L102.11 19.17Z" fill="#DB910E"/>
<path d="M65.2 24.44H65.15V24.45L48.34 29.08L46.93 28.64L108.84 0.429993L129.43 3.92999L132.32 5.95999L65.2 24.44Z" fill="url(#paint3_linear_1_4)"/>
<path d="M73.99 35.14L63.57 52.74L58.35 29.01L73.99 35.14Z" fill="url(#paint4_linear_1_4)"/>
<path d="M85.88 39.81L82.96 44.55L63.98 52.84L74.38 35.3L85.88 39.81Z" fill="url(#paint5_linear_1_4)"/>
<path d="M122.41 70.92L115.81 75.46L113.35 72.39L122.41 70.92Z" fill="url(#paint6_linear_1_4)"/>
<path d="M115.33 75.54L109.4 75.66L110.38 69.33L112.78 72.34L112.88 72.47L115.33 75.54Z" fill="url(#paint7_linear_1_4)"/>
<path d="M110.03 68.9L108.98 75.62L106.44 72.83L110.02 68.88L110.03 68.9Z" fill="#DB910E"/>
<path d="M109.58 68.74L103.5 75.44L98.42 69.76L102.36 67.72L109.58 68.74Z" fill="url(#paint8_linear_1_4)"/>
<path d="M103.01 75.52L90.29 74.07L88.32 59.05L103.01 75.52Z" fill="url(#paint9_linear_1_4)"/>
<path d="M89.82 73.71L82.01 67.4L87.89 58.98L89.82 73.71Z" fill="#DB910E"/>
<path d="M87.65 58.6L77.32 73.38L80.52 58.1L87.65 58.6Z" fill="url(#paint10_linear_1_4)"/>
<path d="M82.82 45.06L76.78 73.95L64.1 64.16L63.69 53.42L82.82 45.06Z" fill="url(#paint11_linear_1_4)"/>
<path d="M63.69 64L60.92 63.41L63.32 54.64L63.69 64Z" fill="#DB910E"/>
<path d="M63.24 53.38L60.49 63.43L45.5 73.9L47.63 43.87L63.24 53.38Z" fill="url(#paint12_linear_1_4)"/>
<path d="M63.17 52.86L47.73 43.45L57.96 29.16L63.17 52.86Z" fill="url(#paint13_linear_1_4)"/>
<path d="M47.38 43.24L47.46 43.3L41.49 41.27L46.44 28.92L46.47 28.93H46.48L55.59 31.76L47.38 43.24Z" fill="#F6C132"/>
<path d="M47.22 43.66L46.77 50.04L41.77 44.48H41.81L41.51 41.71L47.22 43.66Z" fill="url(#paint14_linear_1_4)"/>
<path d="M43.7 72.32L41.86 74.06L13.01 25.31L13.46 24.85L43.7 72.32Z" fill="url(#paint15_linear_1_4)"/>
<path d="M46.73 50.62L45.1 73.74L9.31998 17.59L17.66 18.32L46.73 50.62Z" fill="url(#paint16_linear_1_4)"/>
<path d="M16.59 6.84L12.31 17.44L9.34998 17.18L16.59 6.84Z" fill="#E8A920"/>
<path d="M13.23 24.49L5.26 32.73L2.94 26.31L8.94 17.75L13.23 24.49Z" fill="#E8A920"/>
<path d="M2.54 26.16L2.48 26.25L4.62 32.18L0.5 27.59L1.72 25.28L12.54 4.34L8.79 17.26L2.54 26.16Z" fill="url(#paint17_linear_1_4)"/>
<path d="M110.26 68.47L110.21 68.41L102.33 67.28L98.18 69.43L88.33 58.43L88.18 58.25H87.82L80.64 57.75L83.34 44.84L86.34 40.02L90.82 41.77L91.31 41.28L108.31 46.78L114.83 37.39L124.09 39.97L125.09 33.54L148.09 34.81L145.4 31.18L126.87 21.24H126.81L101.24 23.97L102.61 19.25L112.2 18.76L111.09 12.35L133.34 6.21999L129.65 3.63002L108.92 0.0999908H108.85L46.28 28.61H46.2L46.1 28.86L41.1 41.34L41.39 44.08L17.92 17.99L12.8 17.54L18.38 3.70998L9.54999 16.23L13.85 1.15999L13.66 1.32002L1.39996 25.1L0.039978 27.66L5.20996 33.41L12.76 25.62L41.68 74.5L41.81 74.72L43.97 72.72L45.09 74.48L45.22 74.68L45.55 74.44L60.75 63.83L63.85 64.5L76.68 74.41L77 74.66L77.15 74.46L81.82 67.78L89.95 74.35L90.09 74.47H90.15L103.47 75.99H103.59L103.81 75.76L106.2 73.13L108.89 76.13H109.38L115.73 76H115.89L116.11 75.85L124.2 70.28L113.1 72.09L110.26 68.47ZM102.4 67.71L109.63 68.71L103.54 75.41L98.47 69.72L102.4 67.71ZM58 29.16L63.22 52.86L47.78 43.45L58 29.16ZM58.39 29.01L74.03 35.14L63.61 52.73L58.39 29.01ZM74.39 35.29L85.88 39.8L82.96 44.54L63.96 52.84L74.39 35.29ZM90.66 41.23L62.05 30.01L77.56 30.86L94.7 37.12L90.66 41.23ZM101.3 39.09L78.98 30.94L110.36 32.67L101.3 39.09ZM108.07 46.22L91.58 40.89L95.13 37.28L101.26 39.52H101.36L107.36 35.23L114.28 37.17L108.07 46.22ZM123.67 39.38L107.84 34.97L111.03 32.7L124.57 33.45L123.67 39.38ZM126.67 21.57L145.07 31.43L147.17 34.28L77.64 30.45L60.85 29.53L58.96 28.79L126.67 21.57ZM100.73 23.92L58.09 28.46H57.94L57.73 28.74L55.85 31.38L49.07 29.28L65.25 24.82L91.44 23.99H91.54L94.87 19.53L102.11 19.16L100.73 23.92ZM66.96 24.38L96.9 16.14L91.32 23.6L66.96 24.38ZM95.19 19.11L97.55 15.95L110.63 12.35L111.63 18.27L95.19 19.11ZM108.85 0.419998L129.43 3.93001L132.33 5.93001L65.25 24.43H65.19L48.38 29.06L46.97 28.62L108.85 0.419998ZM46.44 28.92L55.55 31.75L47.42 43.23L47.51 43.29L41.51 41.29L46.44 28.92ZM41.55 41.7L47.27 43.65L46.82 50.04L41.82 44.48L41.55 41.7ZM12.36 17.43L9.35999 17.17L16.61 6.82997L12.36 17.43ZM9.20001 17.57L9.03998 17.67L9.12 17.56L9.20001 17.57ZM8.97998 17.75L13.27 24.48L5.26996 32.72L2.95996 26.31L8.95996 17.75H8.97998ZM1.76001 25.28L12.55 4.32997L8.83002 17.23L2.58997 26.13L2.51996 26.22L4.65997 32.14L0.539978 27.55L1.76001 25.28ZM13.05 25.28L13.5 24.81L43.74 72.29L41.91 74.03L13.05 25.28ZM9.35999 17.56L17.71 18.29L46.78 50.58L45.14 73.7L9.35999 17.56ZM45.55 73.9L47.68 43.9L63.29 53.42L60.55 63.43L45.55 73.9ZM63.38 54.63L63.74 64L60.98 63.4L63.38 54.63ZM64.16 64.15L63.74 53.42L82.87 45.06L76.87 73.95L64.16 64.15ZM80.57 58.15L87.7 58.65L77.37 73.43L80.57 58.15ZM87.94 59.03L89.88 73.75L82.06 67.45L87.94 59.03ZM90.34 74.12L88.34 59.12L103.03 75.6L90.34 74.12ZM106.49 72.87L110.07 68.93L109.07 75.66L106.49 72.87ZM109.49 75.7L110.49 69.38L112.89 72.38L112.99 72.51L115.44 75.57L109.49 75.7ZM122.49 70.97L115.89 75.51L113.44 72.44L122.49 70.97Z" fill="#FCFCFC"/>
<defs>
<linearGradient id="paint0_linear_1_4" x1="83.02" y1="21.38" x2="89.97" y2="28.51" gradientUnits="userSpaceOnUse">
<stop stop-color="#F6C132"/>
<stop offset="0.84" stop-color="#FBCA39"/>
</linearGradient>
<linearGradient id="paint1_linear_1_4" x1="94.78" y1="32.93" x2="95.6" y2="41.17" gradientUnits="userSpaceOnUse">
<stop stop-color="#F6C132"/>
<stop offset="0.84" stop-color="#FBCA39"/>
</linearGradient>
<linearGradient id="paint2_linear_1_4" x1="143.96" y1="26.56" x2="56.36" y2="37.21" gradientUnits="userSpaceOnUse">
<stop stop-color="#FFD878"/>
<stop offset="0.68" stop-color="#FBCA39"/>
</linearGradient>
<linearGradient id="paint3_linear_1_4" x1="135.79" y1="-1.30001" x2="53.9" y2="22.9" gradientUnits="userSpaceOnUse">
<stop stop-color="#FFD878"/>
<stop offset="0.84" stop-color="#FBCA39"/>
</linearGradient>
<linearGradient id="paint4_linear_1_4" x1="64.56" y1="38.78" x2="60.9" y2="53.99" gradientUnits="userSpaceOnUse">
<stop stop-color="#F6C132"/>
<stop offset="1" stop-color="#FBCA39"/>
</linearGradient>
<linearGradient id="paint5_linear_1_4" x1="64.95" y1="37.38" x2="81.25" y2="51.99" gradientUnits="userSpaceOnUse">
<stop offset="0.14" stop-color="#F6C132"/>
<stop offset="0.8" stop-color="#E8A920"/>
</linearGradient>
<linearGradient id="paint6_linear_1_4" x1="122.24" y1="70.38" x2="114.02" y2="74.18" gradientUnits="userSpaceOnUse">
<stop offset="0.14" stop-color="#F6C132"/>
<stop offset="0.8" stop-color="#E8A920"/>
</linearGradient>
<linearGradient id="paint7_linear_1_4" x1="109.4" y1="72.5" x2="115.33" y2="72.5" gradientUnits="userSpaceOnUse">
<stop stop-color="#FFD878"/>
<stop offset="0.68" stop-color="#FBCA39"/>
</linearGradient>
<linearGradient id="paint8_linear_1_4" x1="109.29" y1="67.81" x2="99.61" y2="73.37" gradientUnits="userSpaceOnUse">
<stop offset="0.14" stop-color="#F6C132"/>
<stop offset="0.8" stop-color="#E8A920"/>
</linearGradient>
<linearGradient id="paint9_linear_1_4" x1="88.32" y1="67.28" x2="103.01" y2="67.28" gradientUnits="userSpaceOnUse">
<stop stop-color="#FFD878"/>
<stop offset="0.68" stop-color="#FBCA39"/>
</linearGradient>
<linearGradient id="paint10_linear_1_4" x1="85.35" y1="59.05" x2="78.2" y2="66.49" gradientUnits="userSpaceOnUse">
<stop offset="0.14" stop-color="#F6C132"/>
<stop offset="0.8" stop-color="#E8A920"/>
</linearGradient>
<linearGradient id="paint11_linear_1_4" x1="63.97" y1="56.44" x2="82.74" y2="60.08" gradientUnits="userSpaceOnUse">
<stop stop-color="#F6C132"/>
<stop offset="0.84" stop-color="#FBCA39"/>
</linearGradient>
<linearGradient id="paint12_linear_1_4" x1="62.58" y1="61.76" x2="45.12" y2="58.63" gradientUnits="userSpaceOnUse">
<stop stop-color="#F6C132"/>
<stop offset="0.84" stop-color="#FBCA39"/>
</linearGradient>
<linearGradient id="paint13_linear_1_4" x1="63.84" y1="38.54" x2="51.51" y2="47.84" gradientUnits="userSpaceOnUse">
<stop offset="0.14" stop-color="#F6C132"/>
<stop offset="0.8" stop-color="#E8A920"/>
</linearGradient>
<linearGradient id="paint14_linear_1_4" x1="44.3" y1="48.05" x2="44.37" y2="42.33" gradientUnits="userSpaceOnUse">
<stop stop-color="#DB910E"/>
<stop offset="1" stop-color="#E8A920"/>
</linearGradient>
<linearGradient id="paint15_linear_1_4" x1="28.54" y1="40.08" x2="27.9" y2="70.76" gradientUnits="userSpaceOnUse">
<stop stop-color="#DB910E"/>
<stop offset="1" stop-color="#E8A920"/>
</linearGradient>
<linearGradient id="paint16_linear_1_4" x1="25.41" y1="29.87" x2="45.09" y2="61.69" gradientUnits="userSpaceOnUse">
<stop stop-color="#FFD878"/>
<stop offset="0.35" stop-color="#FBCF61"/>
<stop offset="1" stop-color="#F3BB2E"/>
</linearGradient>
<linearGradient id="paint17_linear_1_4" x1="5.43" y1="23.95" x2="8.15" y2="4.01" gradientUnits="userSpaceOnUse">
<stop stop-color="#DB910E"/>
<stop offset="1" stop-color="#E8A920"/>
</linearGradient>
</defs>
</svg>
