<svg width="85" height="52" viewBox="0 0 85 52" fill="none" xmlns="http://www.w3.org/2000/svg">
<path d="M42.5347 6.10469C45.6521 8.50119 48.172 11.5608 49.9037 15.052C51.6354 18.5432 52.5334 22.3745 52.5299 26.2558C52.533 30.1374 51.6343 33.9688 49.9019 37.46C48.1696 40.9512 45.6489 44.0107 42.5308 46.4068C39.4134 44.0103 36.8935 40.9507 35.1618 37.4595C33.4301 33.9683 32.5321 30.1371 32.5356 26.2558C32.5321 22.3745 33.4301 18.5432 35.1618 15.052C36.8935 11.5608 39.4134 8.50119 42.5308 6.10469H42.5347ZM39.185 3.91009C35.8858 6.66905 33.2377 10.0967 31.4236 13.9561C29.6094 17.8154 28.6725 22.0146 28.6777 26.2633C28.6729 30.5105 29.6096 34.7081 31.4231 38.5661C33.2365 42.4241 35.8835 45.8507 39.1811 48.609C35.1976 50.799 30.6982 51.9299 26.1301 51.8891C21.562 51.8483 17.0844 50.6373 13.1423 48.3765C9.20027 46.1157 5.93103 42.8837 3.6596 39.002C1.38817 35.1202 0.193669 30.7239 0.194825 26.2499C0.195981 21.7759 1.39276 17.3801 3.66619 13.4995C5.93962 9.61886 9.21053 6.38856 13.1538 4.12969C17.097 1.87081 21.5753 0.662034 26.1434 0.623509C30.7114 0.584985 35.2103 1.71806 39.1927 3.91009H39.185ZM45.8921 48.609C49.1895 45.8505 51.8363 42.4239 53.6498 38.566C55.4632 34.708 56.4 30.5105 56.3955 26.2633C56.4002 22.0143 55.4627 17.815 53.6479 13.9556C51.8331 10.0961 49.1842 6.6687 45.8844 3.91009C49.8668 1.71806 54.3656 0.584985 58.9337 0.623509C63.5018 0.662034 67.98 1.87081 71.9233 4.12969C75.8665 6.38856 79.1374 9.61886 81.4109 13.4995C83.6843 17.3801 84.8811 21.7759 84.8822 26.2499C84.8834 30.7239 83.6889 35.1202 81.4174 39.002C79.146 42.8837 75.8768 46.1157 71.9347 48.3765C67.9926 50.6373 63.515 51.8483 58.9469 51.8891C54.3789 51.9299 49.8756 50.799 45.8921 48.609Z" fill="#CCCCCC"/>
</svg>
