<svg width="36" height="36" viewBox="0 0 36 36" fill="none" xmlns="http://www.w3.org/2000/svg">
<g clip-path="url(#clip0_414_7955)">
<path d="M16.7584 1H16.758H6C4.67392 1 3.40215 1.52678 2.46447 2.46447C1.85418 3.07475 1.51159 3.8731 1.3204 4.48133C1.11812 5.12484 1 5.83173 1 6.45824V16.758V16.7584C1.00028 18.0843 1.52717 19.3558 2.46479 20.2932C2.46486 20.2933 2.46493 20.2934 2.465 20.2934L14.4648 32.2932L14.465 32.2934C15.4026 33.2308 16.6742 33.7574 18 33.7574C19.3258 33.7574 20.5974 33.2308 21.535 32.2934L21.5352 32.2932L32.2932 21.5352L32.2934 21.535C33.2308 20.5974 33.7574 19.3258 33.7574 18C33.7574 16.6742 33.2308 15.4026 32.2934 14.465L32.2932 14.4648L20.2934 2.465C20.2934 2.46493 20.2933 2.46486 20.2932 2.46479C19.3558 1.52717 18.0843 1.00028 16.7584 1ZM10.5005 11.5C10.2351 11.4999 9.98057 11.3944 9.79294 11.2067C9.60531 11.019 9.49993 10.7644 9.5 10.499C9.50007 10.2336 9.60557 9.97907 9.79329 9.79144C9.98101 9.60381 10.2356 9.49843 10.501 9.4985C10.7664 9.49857 11.0209 9.60407 11.2086 9.79179C11.3962 9.97952 11.5016 10.2341 11.5015 10.4995C11.5014 10.7649 11.3959 11.0194 11.2082 11.2071C11.0205 11.3947 10.7659 11.5001 10.5005 11.5Z" stroke="black" stroke-width="4"/>
</g>
<defs>
<clipPath id="clip0_414_7955">
<rect width="36" height="36" fill="white"/>
</clipPath>
</defs>
</svg>
