<svg width="101" height="47" viewBox="0 0 101 47" fill="none" xmlns="http://www.w3.org/2000/svg">
<path d="M60.2393 46.0406L62.8184 39.7259L57.7814 27.9595H60.8078L64.2229 36.2949L67.4666 27.9595H70.4386L63.1152 46.0406H60.2393ZM49.8225 40.5889C46.8631 40.5889 43.7824 38.1935 43.7824 34.1563C43.7824 30.0518 46.7586 27.7111 49.8643 27.7111C51.482 27.7111 52.9367 28.3847 53.8187 29.4414V27.9595H56.6486V40.3363H53.8187V38.7282C53.3325 39.3188 52.7213 39.7924 52.0299 40.1144C51.3384 40.4363 50.5843 40.5985 49.8225 40.5889ZM32.2412 40.3363V24.9032H37.4997C40.6724 24.9032 43.0174 27.3491 43.0174 30.397C43.0174 33.4617 40.6682 35.9202 37.4788 35.9202H35.1045V40.3405L32.2412 40.3363ZM50.2782 37.9704C52.3807 37.9704 53.9566 36.257 53.9566 34.1227C53.9566 32.0304 52.3807 30.3086 50.2782 30.3086C49.784 30.3073 49.2946 30.4057 48.8387 30.5979C48.3829 30.7901 47.9698 31.0722 47.6239 31.4276C47.278 31.7831 47.0062 32.2046 46.8246 32.6675C46.643 33.1303 46.5551 33.6251 46.5663 34.1227C46.5663 36.2781 48.1798 37.9704 50.2782 37.9704ZM35.1045 33.247H37.2782C38.9836 33.247 40.1457 31.9841 40.1457 30.397C40.1528 30.0189 40.0832 29.6433 39.9411 29.2932C39.799 28.9431 39.5874 28.6259 39.3194 28.3611C39.0513 28.0962 38.7324 27.8893 38.3821 27.7529C38.0318 27.6165 37.6576 27.5536 37.2823 27.568H35.1045V33.247ZM5.26723 16.1426C2.57527 16.1426 0.0546875 15.1744 0.0546875 11.9539V10.8383H3.90035L3.90871 12.2402C3.90871 13.0274 4.45212 13.5452 5.34665 13.5452C6.29971 13.5452 6.62157 13.0526 6.73861 12.5685C6.83452 12.2204 6.82725 11.8517 6.71771 11.5076C5.97784 9.6385 0.882341 8.78812 0.259511 5.83706C0.123342 5.19552 0.113401 4.53331 0.23025 3.88792C0.606456 1.53044 2.68813 0.688477 5.23797 0.688477C7.2653 0.688477 10.0701 1.16839 10.0701 4.31311V5.33188H6.50035V4.43519C6.50035 3.64796 5.99874 3.13016 5.16273 3.13016C4.26401 3.13016 3.95469 3.64375 3.85437 4.10683C3.80466 4.35724 3.80751 4.61536 3.86273 4.86459C4.27237 6.55272 9.71482 7.45362 10.3209 10.4762C10.3795 10.7794 10.5049 11.5961 10.3293 12.8422C9.9907 15.2544 7.86305 16.1426 5.27141 16.1426H5.26723ZM51.8917 16.0669C49.2248 16.0669 46.7335 15.1112 46.7335 11.9244V10.8172H50.5415V12.1981C50.5415 12.9769 51.0807 13.5031 51.9669 13.5031C52.9158 13.5031 53.2335 13.0105 53.3505 12.5348C53.4453 12.1894 53.438 11.8237 53.3296 11.4824C52.5981 9.63008 47.5528 8.78391 46.9383 5.8581C46.8007 5.22396 46.7893 4.56862 46.9049 3.93002C47.2811 1.59779 49.3502 0.760044 51.8708 0.760044C53.8772 0.760044 56.6486 1.24417 56.6486 4.35942V5.36977H53.1123V4.47729C53.1123 3.69848 52.6274 3.18488 51.7955 3.18488C50.9094 3.18488 50.5875 3.69006 50.4872 4.15314C50.4439 4.39896 50.451 4.6511 50.5081 4.89406C50.9094 6.56956 56.2975 7.46203 56.8994 10.451C56.9621 10.7583 57.0833 11.5666 56.9119 12.8001C56.5734 15.187 54.4624 16.0669 51.8959 16.0669H51.8917ZM65.3682 16.0121C62.7348 16.0121 60.6113 15.1281 60.3605 12.4338C60.3369 12.1215 60.3258 11.8083 60.3271 11.495V1.13471H63.9512V11.8192C63.9512 12.0044 63.9512 12.2107 63.9846 12.3664C64.0557 12.7243 64.3692 13.4105 65.3682 13.4105C66.3631 13.4105 66.6682 12.7243 66.7393 12.3664C66.7669 12.1854 66.7781 12.0022 66.7727 11.8192V1.13471H70.3968V11.495C70.3976 11.8097 70.3864 12.1242 70.3634 12.438C70.1126 15.1323 68.0058 16.0121 65.3682 16.0121ZM95.2808 15.8564C92.7393 15.8564 90.4821 14.926 90.2438 12.2949C90.21 11.9774 90.1905 11.6585 90.1853 11.3393V5.26873C90.1853 5.01194 90.2229 4.55307 90.2521 4.31311C90.574 1.61463 92.7393 0.751625 95.2808 0.751625C97.8223 0.751625 100.046 1.60621 100.309 4.31311C100.355 4.77619 100.343 5.26873 100.343 5.26873V5.74865H96.7313V4.93616C96.7313 4.93616 96.7313 4.59938 96.6895 4.38889C96.6226 4.07315 96.3467 3.33644 95.2473 3.33644C94.2065 3.33644 93.9014 4.03526 93.8261 4.38889C93.7841 4.61369 93.7645 4.84215 93.7676 5.07087V11.6676C93.7654 11.8506 93.7766 12.0335 93.801 12.2149C93.8679 12.6022 94.2357 13.2673 95.2724 13.2673C96.3091 13.2673 96.6644 12.6022 96.7313 12.2149C96.7588 12.0339 96.7699 11.8507 96.7647 11.6676V9.57535H95.2933V7.47046H100.376V11.3435C100.376 11.6129 100.364 11.815 100.322 12.2949C100.084 14.926 97.8223 15.8564 95.2808 15.8564ZM12.7454 15.5827L15.4039 1.13471H21.7827L24.4287 15.5827H20.5746L18.6685 2.47343L18.5849 2.48185L16.6203 15.5827H12.7454ZM27.292 15.5827L27.6013 1.13471H33.4534L35.2132 12.1854H35.301L37.065 1.13471H42.9129L43.2264 15.5827H39.6441L39.5605 2.60393H39.4727L37.0775 15.5827H33.4409L31.0457 2.60814H30.9705L30.8827 15.5869L27.292 15.5827ZM74.393 15.4312V1.13471H79.7142L83.0165 12.4717H83.0917L82.8952 1.13471H86.4525V15.4312H81.3486L77.7997 3.69848H77.7245L77.921 15.4312H74.393Z" fill="#CCCCCC"/>
</svg>
