<svg width="37" height="37" viewBox="0 0 37 37" fill="none" xmlns="http://www.w3.org/2000/svg">
<path d="M33.375 36.2917L21.7083 24.625C20.6667 25.4583 19.4687 26.1181 18.1146 26.6042C16.7604 27.0903 15.3194 27.3333 13.7917 27.3333C10.0069 27.3333 6.80417 26.0229 4.18333 23.4021C1.56111 20.7799 0.25 17.5764 0.25 13.7917C0.25 10.0069 1.56111 6.80347 4.18333 4.18125C6.80417 1.56042 10.0069 0.25 13.7917 0.25C17.5764 0.25 20.7799 1.56042 23.4021 4.18125C26.0229 6.80347 27.3333 10.0069 27.3333 13.7917C27.3333 15.3194 27.0903 16.7604 26.6042 18.1146C26.1181 19.4687 25.4583 20.6667 24.625 21.7083L36.3438 33.4271C36.7257 33.809 36.9167 34.2778 36.9167 34.8333C36.9167 35.3889 36.7083 35.875 36.2917 36.2917C35.9097 36.6736 35.4236 36.8646 34.8333 36.8646C34.2431 36.8646 33.7569 36.6736 33.375 36.2917ZM13.7917 23.1667C16.3958 23.1667 18.6097 22.2556 20.4333 20.4333C22.2556 18.6097 23.1667 16.3958 23.1667 13.7917C23.1667 11.1875 22.2556 8.97361 20.4333 7.15C18.6097 5.32778 16.3958 4.41667 13.7917 4.41667C11.1875 4.41667 8.97361 5.32778 7.15 7.15C5.32778 8.97361 4.41667 11.1875 4.41667 13.7917C4.41667 16.3958 5.32778 18.6097 7.15 20.4333C8.97361 22.2556 11.1875 23.1667 13.7917 23.1667Z" fill="black"/>
</svg>
