<svg width="60" height="59" viewBox="0 0 60 59" fill="none" xmlns="http://www.w3.org/2000/svg">
<path d="M29.9809 0.630859C13.8809 0.630859 0.814209 13.6975 0.814209 29.7975C0.814209 45.8975 13.8809 58.9642 29.9809 58.9642C46.0809 58.9642 59.1475 45.8975 59.1475 29.7975C59.1475 13.6975 46.0809 0.630859 29.9809 0.630859ZM43.5142 20.4642C43.0767 25.0725 41.1809 36.2725 40.2184 41.435C39.81 43.6225 38.9934 44.3517 38.235 44.4392C36.5434 44.585 35.26 43.3309 33.6267 42.2517C31.06 40.56 29.6017 39.51 27.1225 37.8767C24.235 35.9809 26.1017 34.9309 27.7642 33.2392C28.2017 32.8017 35.6684 26.0059 35.8142 25.3934C35.8345 25.3006 35.8318 25.2043 35.8064 25.1128C35.7809 25.0213 35.7336 24.9374 35.6684 24.8684C35.4934 24.7225 35.26 24.7809 35.0559 24.81C34.7934 24.8684 30.71 27.5809 22.7475 32.9475C21.5809 33.735 20.5309 34.1434 19.5975 34.1142C18.5475 34.085 16.5642 33.5309 15.0767 33.035C13.2392 32.4517 11.81 32.1309 11.9267 31.11C11.985 30.585 12.7142 30.06 14.085 29.5059C22.6017 25.8017 28.26 23.3517 31.0892 22.185C39.1975 18.8017 40.86 18.2184 41.9684 18.2184C42.2017 18.2184 42.7559 18.2767 43.1059 18.5684C43.3975 18.8017 43.485 19.1225 43.5142 19.3559C43.485 19.5309 43.5434 20.0559 43.5142 20.4642Z" fill="white"/>
</svg>
