<svg width="56" height="61" viewBox="0 0 56 61" fill="none" xmlns="http://www.w3.org/2000/svg">
<path fill-rule="evenodd" clip-rule="evenodd" d="M41.6193 2.46225C32.4429 0.411021 22.9269 0.411021 13.7505 2.46225L12.7618 2.681C10.1806 3.2581 7.80987 4.53945 5.91304 6.38273C4.01621 8.22601 2.66751 10.559 2.01675 13.1227C-0.309296 22.2884 -0.309296 31.8899 2.01675 41.0556C2.63735 43.5005 3.89335 45.7379 5.65743 47.5409C7.42151 49.3439 9.63095 50.6484 12.0618 51.3222L13.418 59.4189C13.4613 59.676 13.5727 59.9168 13.7407 60.1162C13.9086 60.3156 14.127 60.4664 14.373 60.5527C14.619 60.6391 14.8837 60.658 15.1394 60.6073C15.3952 60.5566 15.6327 60.4384 15.8272 60.2647L23.7926 53.1393C29.772 53.5042 35.773 53.0261 41.6193 51.7189L42.6109 51.5002C45.1921 50.9231 47.5628 49.6417 49.4596 47.7984C51.3565 45.9552 52.7052 43.6221 53.3559 41.0585C55.6817 31.8928 55.6817 22.2913 53.3559 13.1256C52.7049 10.5616 51.3558 8.2283 49.4584 6.38499C47.561 4.54168 45.1897 3.26053 42.608 2.68392L41.6193 2.46225ZM16.2122 12.8864C15.6701 12.8075 15.1174 12.9166 14.6459 13.1956H14.6051C13.5113 13.8373 12.5255 14.6452 11.6855 15.596C10.9855 16.4039 10.6063 17.2206 10.5072 18.0081C10.4488 18.4748 10.4897 18.9472 10.6268 19.3935L10.6793 19.4227C11.4668 21.7356 12.4934 23.961 13.7476 26.0552C15.3647 28.9966 17.3548 31.717 19.6684 34.1489L19.7384 34.2481L19.8493 34.3297L19.9163 34.4085L19.998 34.4785C22.4385 36.7991 25.1652 38.7986 28.1122 40.4285C31.4809 42.2631 33.5255 43.1293 34.7534 43.491V43.5085C35.1122 43.6193 35.4388 43.6689 35.7684 43.6689C36.8142 43.5916 37.804 43.1666 38.5801 42.4614C39.528 41.6214 40.3301 40.6327 40.9543 39.5331V39.5127C41.5405 38.4043 41.3422 37.3602 40.4963 36.6514C38.7974 35.1669 36.9602 33.8484 35.0101 32.7139C33.7034 32.0052 32.3763 32.4339 31.8397 33.1514L30.6934 34.5981C30.1043 35.3156 29.0368 35.2164 29.0368 35.2164L29.0076 35.2339C21.0422 33.201 18.9159 25.1364 18.9159 25.1364C18.9159 25.1364 18.8168 24.0397 19.5547 23.4797L20.9897 22.3247C21.678 21.7647 22.1563 20.4406 21.4184 19.1339C20.2914 17.182 18.9755 15.3454 17.4897 13.6506C17.1656 13.2517 16.7111 12.9801 16.2063 12.8835L16.2122 12.8864ZM29.6697 9.38058C29.2829 9.38058 28.912 9.53423 28.6385 9.80772C28.365 10.0812 28.2113 10.4521 28.2113 10.8389C28.2113 11.2257 28.365 11.5966 28.6385 11.8701C28.912 12.1436 29.2829 12.2973 29.6697 12.2973C33.3593 12.2973 36.4218 13.5018 38.8455 15.8118C40.0909 17.0748 41.0622 18.571 41.698 20.2102C42.3368 21.8523 42.6284 23.6052 42.5526 25.361C42.5445 25.5525 42.5743 25.7437 42.6402 25.9237C42.706 26.1038 42.8067 26.269 42.9364 26.4101C43.1984 26.6951 43.5629 26.8643 43.9497 26.8806C44.3364 26.8968 44.7138 26.7588 44.9988 26.4968C45.2838 26.2348 45.453 25.8703 45.4693 25.4835C45.5597 23.3237 45.2012 21.1685 44.4163 19.1543C43.6281 17.1306 42.4329 15.2901 40.9047 13.7468L40.8755 13.7177C37.8684 10.8448 34.0622 9.38058 29.6697 9.38058ZM29.5705 14.1756C29.1837 14.1756 28.8128 14.3292 28.5393 14.6027C28.2658 14.8762 28.1122 15.2471 28.1122 15.6339C28.1122 16.0207 28.2658 16.3916 28.5393 16.6651C28.8128 16.9386 29.1837 17.0923 29.5705 17.0923H29.6201C32.2801 17.2818 34.2168 18.1685 35.573 19.6239C36.9642 21.1231 37.6847 22.9868 37.6292 25.291C37.6204 25.6778 37.7655 26.0522 38.0327 26.332C38.2999 26.6118 38.6673 26.774 39.054 26.7829C39.4408 26.7918 39.8153 26.6467 40.0951 26.3795C40.3748 26.1123 40.537 25.7449 40.5459 25.3581C40.6159 22.3335 39.6418 19.7231 37.7109 17.6406V17.6348C35.7363 15.5173 33.0268 14.3973 29.7659 14.1785L29.7163 14.1727L29.5705 14.1756ZM29.5151 19.061C29.3199 19.0438 29.1233 19.0661 28.9369 19.1265C28.7506 19.187 28.5783 19.2844 28.4304 19.4129C28.2825 19.5414 28.162 19.6984 28.0761 19.8745C27.9903 20.0506 27.9407 20.2421 27.9305 20.4378C27.9204 20.6335 27.9497 20.8292 28.0168 21.0132C28.0839 21.1973 28.1874 21.366 28.3212 21.5092C28.4549 21.6523 28.6161 21.7671 28.7952 21.8466C28.9743 21.9261 29.1675 21.9687 29.3634 21.9718C30.5826 22.036 31.3613 22.4035 31.8513 22.8964C32.3442 23.3923 32.7118 24.1885 32.7788 25.4339C32.7825 25.6296 32.8255 25.8226 32.9053 26.0013C32.9851 26.1801 33.1 26.3409 33.2433 26.4743C33.3866 26.6076 33.5553 26.7108 33.7392 26.7776C33.9232 26.8444 34.1188 26.8735 34.3143 26.8631C34.5097 26.8527 34.7011 26.8031 34.877 26.7172C35.0529 26.6313 35.2096 26.5108 35.338 26.363C35.4663 26.2152 35.5636 26.0431 35.624 25.8569C35.6845 25.6708 35.7068 25.4743 35.6897 25.2793C35.5963 23.5293 35.048 21.9835 33.9251 20.846C32.7963 19.7085 31.2593 19.1543 29.5151 19.061Z" fill="white"/>
</svg>
