<svg width="83" height="28" viewBox="0 0 83 28" fill="none" xmlns="http://www.w3.org/2000/svg">
<path d="M76.245 26.9953L75.4815 23.1361H66.912L65.5485 26.9678L58.6799 26.9816C63.0942 16.3028 66.3734 8.39578 68.5107 3.25365C69.0697 1.90894 70.0616 1.22287 71.524 1.23316C72.642 1.24345 74.4657 1.24345 76.9983 1.23659L82.3091 26.985L76.245 26.9953ZM68.8413 17.8499H74.3634L72.3011 8.17624L68.8413 17.8499ZM24.5655 1.22973L31.4716 1.23659L20.7955 26.9987L13.8042 26.9919C12.0462 20.1871 10.31 13.3766 8.59569 6.56053C8.25482 5.2021 7.5799 4.25189 6.28118 3.80251C4.36321 3.15557 2.43594 2.5369 0.5 1.94667L0.5 1.23659H11.534C13.4429 1.23659 14.5575 2.16622 14.9154 4.07351C15.2768 5.98423 16.1835 10.8519 17.6424 18.6663L24.5655 1.22973ZM40.9614 1.23659L35.5041 26.9953L28.9287 26.985L34.3826 1.22973L40.9614 1.23659ZM54.2895 0.759766C56.2563 0.759766 58.7345 1.37723 60.1593 1.94667L59.0072 7.28434C57.7187 6.76293 55.5984 6.0597 53.8157 6.08371C51.2251 6.1283 49.623 7.2226 49.623 8.27229C49.623 9.98062 52.4045 10.8416 55.2678 12.7078C58.5333 14.8346 58.9662 16.7453 58.9253 18.8241C58.881 23.1292 55.2678 27.3795 47.6459 27.3795C44.169 27.328 42.9146 27.0364 40.0786 26.0211L41.2784 20.4501C44.1656 21.6645 45.3893 22.0521 47.8573 22.0521C50.1172 22.0521 52.0568 21.1328 52.0738 19.5308C52.0875 18.3919 51.3921 17.8259 48.856 16.4194C46.3199 15.0096 42.7612 13.0611 42.8089 9.14017C42.8669 4.12496 47.588 0.759766 54.2895 0.759766Z" fill="#CCCCCC"/>
</svg>
