<svg width="50" height="50" viewBox="0 0 50 50" fill="none" xmlns="http://www.w3.org/2000/svg">
<path d="M38.124 11.8958C37.9313 11.7027 37.7023 11.5495 37.4503 11.4449C37.1983 11.3404 36.9281 11.2866 36.6553 11.2866C36.3824 11.2866 36.1122 11.3404 35.8602 11.4449C35.6082 11.5495 35.3792 11.7027 35.1865 11.8958L24.999 22.0625L14.8115 11.875C14.6186 11.6821 14.3896 11.5291 14.1376 11.4247C13.8856 11.3204 13.6155 11.2666 13.3428 11.2666C13.07 11.2666 12.7999 11.3204 12.5479 11.4247C12.2959 11.5291 12.0669 11.6821 11.874 11.875C11.6811 12.0679 11.5281 12.2969 11.4237 12.5489C11.3194 12.8009 11.2656 13.071 11.2656 13.3438C11.2656 13.6165 11.3194 13.8866 11.4237 14.1386C11.5281 14.3906 11.6811 14.6196 11.874 14.8125L22.0615 25L11.874 35.1875C11.6811 35.3804 11.5281 35.6094 11.4237 35.8614C11.3194 36.1134 11.2656 36.3835 11.2656 36.6563C11.2656 36.929 11.3194 37.1991 11.4237 37.4511C11.5281 37.7031 11.6811 37.9321 11.874 38.125C12.0669 38.3179 12.2959 38.4709 12.5479 38.5753C12.7999 38.6797 13.07 38.7334 13.3428 38.7334C13.6155 38.7334 13.8856 38.6797 14.1376 38.5753C14.3896 38.4709 14.6186 38.3179 14.8115 38.125L24.999 27.9375L35.1865 38.125C35.3794 38.3179 35.6084 38.4709 35.8604 38.5753C36.1124 38.6797 36.3825 38.7334 36.6553 38.7334C36.928 38.7334 37.1981 38.6797 37.4501 38.5753C37.7021 38.4709 37.9311 38.3179 38.124 38.125C38.3169 37.9321 38.4699 37.7031 38.5743 37.4511C38.6787 37.1991 38.7324 36.929 38.7324 36.6563C38.7324 36.3835 38.6787 36.1134 38.5743 35.8614C38.4699 35.6094 38.3169 35.3804 38.124 35.1875L27.9365 25L38.124 14.8125C38.9157 14.0208 38.9157 12.6875 38.124 11.8958Z" fill="#CCCCCC"/>
</svg>
